<svg viewBox="-23 0 512 512.00071" xmlns="http://www.w3.org/2000/svg"><path d="m356.851562 2.46875c-11.957031-5.867188-26.460937-.910156-32.324218 11.042969l-35.46875 72.28125c-.941406 1.917969-1.082032 4.132812-.390625 6.152343.6875 2.019532 2.152343 3.683594 4.070312 4.625l28.914063 14.1875c1.140625.558594 2.351562.824219 3.542968.824219 2.972657 0 5.832032-1.65625 7.234376-4.507812l35.464843-72.28125c5.867188-11.957031.914063-26.457031-11.042969-32.324219zm0 0" fill="#3fc448"/><path d="m142.460938 13.511719c-5.867188-11.957031-20.367188-16.910157-32.324219-11.042969s-16.914063 20.367188-11.042969 32.324219l35.464844 72.28125c1.398437 2.851562 4.257812 4.507812 7.234375 4.507812 1.191406 0 2.402343-.265625 3.542969-.824219l28.914062-14.191406c1.914062-.9375 3.382812-2.601562 4.070312-4.621094.691407-2.023437.550782-4.234374-.390624-6.152343zm0 0" fill="#3fc448"/><path d="m430.753906 214.097656c-19.976562 0-36.230468 16.25-36.230468 36.230469v120.773437c0 19.976563 16.253906 36.230469 36.230468 36.230469 19.980469 0 36.234375-16.253906 36.234375-36.230469v-120.773437c0-19.976563-16.253906-36.230469-36.234375-36.230469zm0 0" fill="#78d67f"/><path d="m370.367188 214.097656h-273.75c-4.445313 0-8.050782 3.601563-8.050782 8.050782v193.234374c0 4.445313 3.605469 8.050782 8.050782 8.050782h32.207031v52.335937c0 19.976563 16.253906 36.230469 36.230469 36.230469 19.980468 0 36.234374-16.253906 36.234374-36.230469v-52.335937h64.410157v52.335937c0 19.976563 16.253906 36.230469 36.230469 36.230469 19.980468 0 36.234374-16.253906 36.234374-36.230469v-52.335937h32.203126c4.449218 0 8.054687-3.605469 8.054687-8.050782v-193.234374c0-4.449219-3.605469-8.050782-8.054687-8.050782zm0 0" fill="#78d67f"/><g fill="#65d06c"><path d="m112.722656 415.382812v-193.234374c0-4.449219 3.605469-8.050782 8.050782-8.050782h-24.15625c-4.445313 0-8.050782 3.601563-8.050782 8.050782v193.234374c0 4.445313 3.605469 8.050782 8.050782 8.050782h24.15625c-4.445313 0-8.050782-3.605469-8.050782-8.050782zm0 0"/><path d="m289.855469 475.769531v-52.335937h-24.15625v52.335937c0 19.976563 16.253906 36.230469 36.230469 36.230469 4.234374 0 8.296874-.734375 12.078124-2.078125-14.054687-4.984375-24.152343-18.40625-24.152343-34.152344zm0 0"/><path d="m152.980469 475.769531v-52.335937h-24.15625v52.335937c0 19.976563 16.253906 36.230469 36.230469 36.230469 4.234374 0 8.296874-.734375 12.078124-2.078125-14.058593-4.984375-24.152343-18.40625-24.152343-34.152344zm0 0"/><path d="m36.230469 214.097656c-19.976563 0-36.230469 16.25-36.230469 36.230469v120.773437c0 19.976563 16.253906 36.230469 36.230469 36.230469 19.980469 0 36.234375-16.253906 36.234375-36.230469v-120.773437c0-19.976563-16.253906-36.230469-36.234375-36.230469zm0 0"/></g><path d="m233.492188 45.015625c-79.910157 0-144.925782 65.011719-144.925782 144.925781 0 4.445313 3.605469 8.050782 8.050782 8.050782h273.75c4.449218 0 8.054687-3.605469 8.054687-8.050782 0-79.914062-65.015625-144.925781-144.929687-144.925781zm-48.308594 96.617187c0 8.878907-7.222656 16.101563-16.101563 16.101563-8.878906 0-16.101562-7.222656-16.101562-16.101563 0-8.878906 7.222656-16.101562 16.101562-16.101562 8.878907 0 16.101563 7.222656 16.101563 16.101562zm96.617187 0c0-8.878906 7.226563-16.101562 16.105469-16.101562s16.101562 7.222656 16.101562 16.101562c0 8.878907-7.222656 16.101563-16.101562 16.101563s-16.105469-7.222656-16.105469-16.101563zm0 0" fill="#78d67f"/><path d="m120.773438 189.941406c0-74.46875 56.460937-135.992187 128.824218-144.027344-5.289062-.585937-10.660156-.898437-16.105468-.898437-79.910157 0-144.925782 65.011719-144.925782 144.925781 0 4.445313 3.605469 8.050782 8.050782 8.050782h32.207031c-4.445313 0-8.050781-3.605469-8.050781-8.050782zm0 0" fill="#65d06c"/></svg>