<?xml version="1.0" standalone="no"?>
<!DOCTYPE svg PUBLIC "-//W3C//DTD SVG 20010904//EN"
 "http://www.w3.org/TR/2001/REC-SVG-20010904/DTD/svg10.dtd">
<svg version="1.0" xmlns="http://www.w3.org/2000/svg"
 width="512.000000pt" height="512.000000pt" viewBox="0 0 512.000000 512.000000"
 preserveAspectRatio="xMidYMid meet">

<g transform="translate(0.000000,512.000000) scale(0.100000,-0.100000)"
fill="#000000" stroke="none">
<path d="M713 4636 c-137 -44 -237 -157 -263 -298 -7 -36 -10 -277 -8 -670 l3
-613 23 -58 c31 -76 116 -168 190 -204 l57 -28 670 0 670 0 67 33 c75 37 142
103 179 179 l24 48 0 675 0 675 -32 66 c-39 79 -102 140 -181 177 l-57 27
-650 2 c-518 2 -659 -1 -692 -11z m1249 -226 c50 -14 97 -55 119 -105 17 -37
19 -79 19 -608 0 -477 -2 -572 -14 -596 -22 -41 -80 -88 -123 -100 -52 -15
-1094 -15 -1146 0 -51 14 -114 72 -127 118 -8 24 -10 226 -8 607 l3 570 25 37
c15 22 46 48 74 62 l50 25 545 0 c345 0 560 -4 583 -10z"/>
<path d="M3013 4636 c-103 -33 -194 -114 -241 -214 l-27 -57 -3 -625 c-2 -451
0 -640 8 -680 25 -114 101 -212 208 -266 l57 -29 670 0 670 0 67 33 c82 40
157 119 190 200 l23 57 3 605 c2 417 0 625 -8 670 -22 127 -103 234 -218 288
l-57 27 -650 2 c-518 2 -659 -1 -692 -11z m1290 -245 c21 -13 50 -42 65 -64
l27 -41 3 -555 c2 -388 0 -568 -8 -596 -14 -48 -35 -75 -85 -109 l-38 -26
-574 0 c-459 0 -580 3 -606 14 -42 17 -93 76 -107 123 -8 26 -10 207 -8 588
l3 550 28 47 c28 48 46 63 102 85 22 9 178 11 595 10 l565 -2 38 -24z"/>
<path d="M719 2356 c-106 -29 -209 -121 -251 -224 l-23 -57 0 -650 c0 -599 1
-654 18 -695 47 -119 153 -217 260 -240 36 -8 247 -10 707 -8 l655 3 66 32
c79 39 140 102 177 181 l27 57 0 670 0 670 -29 59 c-39 79 -102 140 -184 179
l-67 32 -655 2 c-497 1 -666 -1 -701 -11z m1288 -237 c40 -15 82 -57 104 -104
17 -37 19 -76 19 -593 0 -477 -2 -558 -15 -590 -21 -49 -52 -81 -100 -103 -37
-17 -77 -19 -608 -19 -490 0 -573 2 -605 15 -49 21 -81 52 -103 100 -17 37
-19 77 -19 591 0 385 3 561 11 585 14 42 64 97 104 115 39 17 1167 20 1212 3z"/>
<path d="M3490 2335 c-310 -64 -564 -276 -687 -575 -51 -122 -66 -221 -60
-384 6 -165 25 -245 92 -381 176 -357 573 -567 975 -515 52 7 124 21 160 32
78 24 199 87 258 135 23 19 47 33 52 31 5 -2 60 -50 121 -108 130 -122 141
-129 194 -130 88 0 139 70 116 157 -9 34 -33 62 -135 158 l-125 117 39 59 c85
131 123 277 123 474 0 262 -82 470 -257 653 -136 142 -309 240 -488 276 -94
19 -286 20 -378 1z m370 -230 c250 -65 451 -271 514 -526 20 -82 21 -243 1
-326 -60 -254 -266 -461 -525 -530 -88 -24 -263 -23 -350 0 -201 55 -369 194
-460 382 -51 105 -70 187 -70 311 0 357 241 637 608 704 66 12 206 5 282 -15z"/>
</g>
</svg>
