<?xml version="1.0" encoding="iso-8859-1"?>
<!-- Generator: Adobe Illustrator 16.0.0, SVG Export Plug-In . SVG Version: 6.00 Build 0)  -->
<!DOCTYPE svg PUBLIC "-//W3C//DTD SVG 1.1//EN" "http://www.w3.org/Graphics/SVG/1.1/DTD/svg11.dtd">
<svg version="1.1" id="Capa_1" xmlns="http://www.w3.org/2000/svg" xmlns:xlink="http://www.w3.org/1999/xlink" x="0px" y="0px"
	 width="612.02px" height="612.02px" viewBox="0 0 612.02 612.02" style="enable-background:new 0 0 612.02 612.02;" fill="#666" stroke="#666"
	 xml:space="preserve">
<g>
	<g id="_x35__38_">
		<g>
			<path d="M306.01,0c-169.008,0-306,117.466-306,262.396c0,119.512,93.272,220.167,220.741,251.856l85.259,97.768l85.259-97.768
				C518.737,482.562,612.01,381.907,612.01,262.396C612.01,117.466,475.018,0,306.01,0z M372.832,471.087L330.738,523.7
				l-24.729,30.925l-66.823-83.538C123.634,446.665,38.126,360.755,38.126,258.207c0-121.54,119.933-220.071,267.884-220.071
				s267.884,98.532,267.884,220.071C573.913,360.755,488.386,446.665,372.832,471.087z"/>
		</g>
	</g>
</g>
<g>
</g>
<g>
</g>
<g>
</g>
<g>
</g>
<g>
</g>
<g>
</g>
<g>
</g>
<g>
</g>
<g>
</g>
<g>
</g>
<g>
</g>
<g>
</g>
<g>
</g>
<g>
</g>
<g>
</g>
</svg>
