<?xml version="1.0" standalone="no"?>
<!DOCTYPE svg PUBLIC "-//W3C//DTD SVG 20010904//EN"
 "http://www.w3.org/TR/2001/REC-SVG-20010904/DTD/svg10.dtd">
<svg version="1.0" xmlns="http://www.w3.org/2000/svg"
 width="52.000000pt" height="52.000000pt" viewBox="0 0 52.000000 52.000000"
 preserveAspectRatio="xMidYMid meet">

<g transform="translate(0.000000,52.000000) scale(0.100000,-0.100000)"
fill="#000000" stroke="none">
<path d="M0 260 l0 -260 260 0 260 0 0 260 0 260 -260 0 -260 0 0 -260z m292
233 c10 -9 18 -24 18 -34 0 -26 65 -63 96 -55 33 9 74 -17 74 -46 0 -27 -27
-58 -52 -58 -24 0 -61 38 -54 55 3 9 -10 23 -36 39 -32 19 -45 22 -59 13 -12
-7 -24 -8 -40 -1 -32 15 -99 -22 -99 -54 0 -12 -9 -30 -20 -39 -14 -12 -20
-30 -20 -58 0 -29 5 -44 20 -53 11 -7 20 -22 20 -35 0 -15 11 -29 30 -41 37
-21 30 -42 -8 -22 -15 7 -43 11 -64 9 -30 -4 -39 -1 -53 20 -18 27 -12 51 19
77 25 20 20 79 -9 106 -14 13 -25 30 -25 39 0 36 68 72 85 45 11 -17 88 35 90
61 2 24 30 49 54 49 8 0 23 -7 33 -17z m-100 -214 l16 -44 22 48 c12 27 27 46
33 44 7 -2 19 -23 28 -47 l16 -43 18 46 c16 43 45 65 45 35 0 -27 -54 -148
-64 -145 -6 2 -18 22 -26 45 -8 23 -17 42 -20 42 -3 0 -13 -21 -24 -45 -10
-25 -23 -44 -30 -42 -12 4 -54 111 -55 140 -1 33 23 12 41 -34z m248 -27 c0
-26 6 -41 20 -50 24 -15 27 -64 5 -82 -9 -8 -29 -10 -50 -7 -43 7 -105 -25
-105 -53 0 -26 -27 -50 -55 -50 -34 0 -60 41 -45 69 16 31 46 44 70 31 28 -15
100 26 100 57 0 13 9 28 20 35 14 9 20 24 20 50 0 21 5 38 10 38 6 0 10 -17
10 -38z"/>
<path d="M234 465 c-8 -19 3 -35 26 -35 19 0 34 25 24 41 -8 14 -44 10 -50 -6z"/>
<path d="M64 365 c-8 -19 3 -35 26 -35 19 0 30 17 23 38 -6 17 -42 15 -49 -3z"/>
<path d="M404 365 c-4 -9 -2 -21 4 -27 16 -16 47 -5 47 17 0 26 -42 34 -51 10z"/>
<path d="M67 183 c-13 -12 -7 -41 10 -47 9 -4 23 0 31 8 13 12 13 18 2 30 -13
17 -32 21 -43 9z"/>
<path d="M410 174 c-11 -12 -10 -18 3 -32 16 -15 18 -15 34 0 13 14 14 20 3
32 -7 9 -16 16 -20 16 -4 0 -13 -7 -20 -16z"/>
<path d="M233 74 c-3 -8 2 -23 11 -32 15 -15 17 -15 33 0 13 14 14 20 3 32
-16 20 -39 20 -47 0z"/>
</g>
</svg>
