<?xml version="1.0"?>
<svg xmlns="http://www.w3.org/2000/svg" viewBox="0 0 64 64" width="512" height="512"><g id="log-file"><path d="M61,6H49.414L45.707,2.293A1,1,0,0,0,45,2H17a1,1,0,0,0-1,1V21H3a1,1,0,0,0-1,1V42a1,1,0,0,0,1,1H16V57a1,1,0,0,0,1,1h3v3a1,1,0,0,0,1,1H61a1,1,0,0,0,1-1V7A1,1,0,0,0,61,6ZM46,5.414,54.586,14H47a1,1,0,0,1-1-1ZM4,23H52V41H4ZM18,43H53a1,1,0,0,0,1-1V22a1,1,0,0,0-1-1H18V4H44v9a3,3,0,0,0,3,3h9V56H18ZM60,60H22V58H57a1,1,0,0,0,1-1V15a1,1,0,0,0-.293-.707L51.414,8H60Z"/><path d="M13,25H11V38a1,1,0,0,0,1,1h9V37H13Z"/><path d="M32,25H24a1,1,0,0,0-1,1V38a1,1,0,0,0,1,1h8a1,1,0,0,0,1-1V26A1,1,0,0,0,32,25ZM31,37H25V27h6Z"/><path d="M44,25H36a1,1,0,0,0-1,1V38a1,1,0,0,0,1,1h8a1,1,0,0,0,1-1V32a1,1,0,0,0-1-1H40v2h3v4H37V27h6v2h2V26A1,1,0,0,0,44,25Z"/></g></svg>
