<?xml version="1.0" standalone="no"?>
<!DOCTYPE svg PUBLIC "-//W3C//DTD SVG 20010904//EN"
 "http://www.w3.org/TR/2001/REC-SVG-20010904/DTD/svg10.dtd">
<svg version="1.0" xmlns="http://www.w3.org/2000/svg"
 width="512.000000pt" height="512.000000pt" viewBox="0 0 512.000000 512.000000"
 preserveAspectRatio="xMidYMid meet">

<g transform="translate(0.000000,512.000000) scale(0.100000,-0.100000)"
fill="#fff" stroke="none">
<path d="M0 2560 l0 -2560 2560 0 2560 0 0 2560 0 2560 -2560 0 -2560 0 0
-2560z m2620 2440 c0 -5 17 -12 38 -16 54 -9 180 -79 231 -127 54 -52 104
-128 133 -204 20 -49 23 -74 21 -168 -1 -60 -4 -123 -5 -138 -3 -27 5 -33 132
-106 134 -77 367 -212 571 -330 59 -33 110 -61 114 -61 4 0 25 15 46 34 71 61
148 95 230 102 41 4 80 11 87 17 8 6 16 6 25 0 6 -6 35 -13 64 -16 28 -3 60
-10 70 -15 10 -5 44 -22 77 -37 110 -52 210 -177 253 -317 46 -147 -3 -347
-111 -460 -122 -126 -223 -171 -386 -171 -131 -1 -203 25 -319 117 -102 80
-166 198 -191 351 -8 47 -6 70 10 129 11 39 20 76 20 82 0 10 -279 175 -708
420 l-94 54 -55 -45 c-187 -153 -454 -164 -628 -25 -27 22 -59 46 -71 55 -23
17 23 42 -637 -340 l-187 -108 7 -51 c5 -28 8 -94 7 -146 0 -95 -15 -155 -60
-242 -25 -48 -114 -158 -129 -158 -7 0 -18 -7 -26 -16 -16 -20 -81 -53 -133
-68 l-41 -12 0 -444 0 -443 30 -10 c17 -5 37 -16 46 -23 8 -8 22 -14 31 -14
26 0 152 -107 185 -157 28 -42 59 -104 84 -168 26 -67 28 -171 4 -280 -6 -30
-5 -31 122 -104 70 -40 187 -107 258 -149 72 -41 147 -84 168 -95 20 -11 37
-24 37 -29 0 -7 -86 -157 -96 -167 -2 -2 -9 1 -16 7 -7 5 -29 19 -48 30 -71
40 -476 274 -506 293 l-31 19 -39 -36 c-200 -181 -501 -176 -690 11 -75 74
-93 101 -129 190 -25 62 -29 83 -29 181 -1 62 4 121 10 135 6 13 22 47 34 74
33 71 91 144 147 187 49 37 172 98 199 98 12 0 14 70 14 450 l0 449 -42 12
c-122 32 -258 149 -316 271 -49 104 -67 300 -33 365 5 10 17 37 27 61 70 171
273 305 459 305 112 -1 204 -32 310 -109 66 -47 64 -47 135 -2 69 44 655 381
718 414 33 17 34 18 25 63 -12 68 -10 244 4 272 6 13 20 44 31 69 31 75 143
191 224 232 37 18 87 40 133 55 38 14 185 16 185 3z m-975 -1769 c22 -10 48
-27 58 -39 17 -18 54 -111 107 -262 11 -30 33 -91 49 -135 16 -44 54 -152 86
-240 31 -88 63 -174 71 -192 8 -17 17 -45 20 -62 4 -17 10 -34 14 -36 5 -3 22
30 40 72 31 77 152 359 170 398 6 11 50 115 100 230 72 169 96 216 125 241 50
44 87 49 149 21 62 -29 62 -29 181 -362 47 -132 94 -262 104 -290 11 -27 37
-99 59 -160 22 -60 43 -110 48 -112 5 -2 46 97 91 219 219 597 241 651 278
684 51 45 93 51 153 20 36 -18 53 -34 66 -65 31 -67 40 -33 -146 -521 -32 -85
-65 -173 -73 -195 -7 -22 -22 -62 -33 -90 -22 -58 -144 -381 -177 -471 -36
-97 -53 -123 -95 -144 -46 -24 -78 -25 -124 -6 -50 21 -67 50 -130 227 -31 90
-62 173 -67 184 -8 19 -45 120 -104 290 -56 159 -91 245 -100 247 -9 3 -54
-95 -197 -427 -33 -77 -71 -165 -85 -195 -14 -30 -41 -93 -60 -140 -50 -124
-73 -160 -115 -181 -44 -23 -77 -24 -122 -5 -47 20 -69 53 -110 168 -20 57
-45 126 -56 153 -10 28 -42 115 -70 195 -59 164 -81 227 -109 303 -11 28 -42
115 -70 192 -27 77 -66 186 -86 243 -43 118 -42 152 7 207 26 30 67 51 103 54
6 0 28 -8 50 -18z m2667 -440 c-1 -13 3 -29 8 -36 7 -9 7 -15 1 -19 -14 -9
-13 -536 1 -554 8 -9 8 -16 0 -24 -7 -7 -12 -24 -12 -39 0 -27 13 -36 77 -54
13 -3 43 -18 69 -33 25 -15 54 -32 65 -38 66 -37 144 -151 186 -271 24 -71 22
-201 -6 -283 -45 -134 -149 -252 -271 -308 -30 -14 -66 -30 -79 -36 -38 -17
-219 -14 -271 6 -78 28 -144 66 -188 108 -42 40 -65 49 -77 31 -3 -6 -18 -16
-33 -24 -27 -14 -145 -80 -232 -131 -25 -14 -82 -47 -128 -73 -46 -27 -98 -57
-116 -68 -50 -30 -146 -85 -186 -107 -79 -43 -95 -55 -93 -74 1 -10 7 -46 13
-79 17 -101 3 -187 -46 -284 -62 -125 -160 -218 -268 -254 -115 -40 -145 -47
-192 -47 -69 0 -200 43 -271 89 -230 148 -299 461 -154 696 61 100 201 199
319 227 58 14 163 14 218 1 70 -17 168 -68 223 -117 l52 -46 42 24 c23 13 157
91 297 172 305 176 406 234 443 253 27 14 27 16 20 75 -22 166 9 288 105 419
58 80 199 182 262 189 l25 3 1 356 c1 196 5 362 9 368 4 8 37 11 98 9 90 -3
92 -3 89 -27z"/>
<path fill="#000" d="M2454 4780 c-89 -28 -181 -123 -205 -213 -35 -131 33 -281 155 -345
42 -21 65 -26 131 -26 68 -1 89 3 137 27 64 32 111 80 142 146 28 61 29 189 3
242 -53 106 -149 170 -261 175 -39 2 -85 -1 -102 -6z"/>
<path fill="#000" d="M779 3777 c-178 -51 -271 -266 -183 -427 79 -146 242 -200 389 -130
105 50 163 137 173 256 4 54 1 70 -28 132 -18 39 -46 84 -64 101 -67 65 -192
95 -287 68z"/>
<path fill="#000" d="M4123 3772 c-70 -25 -118 -64 -161 -131 -36 -54 -37 -59 -37 -151 0
-86 3 -100 27 -142 85 -144 253 -199 396 -128 113 57 166 144 166 275 0 67 -4
88 -26 131 -68 130 -229 195 -365 146z"/>
<path fill="#000" d="M777 1876 c-93 -26 -183 -116 -208 -209 -35 -131 35 -284 158 -347
67 -35 197 -36 261 -2 115 61 166 147 167 277 0 91 -20 143 -82 207 -68 70
-196 102 -296 74z"/>
<path fill="#000" d="M4195 1881 c-3 -6 -16 -11 -28 -11 -41 0 -122 -47 -168 -97 -55 -58
-72 -105 -73 -193 0 -113 58 -207 164 -262 62 -32 184 -33 251 -1 61 27 125
92 151 151 31 70 30 181 -1 246 -30 62 -84 116 -142 143 -53 26 -144 39 -154
24z"/>
<path fill="#000" d="M2448 901 c-83 -27 -166 -111 -193 -197 -35 -111 -7 -222 76 -305 58
-58 116 -81 203 -82 96 0 161 28 226 100 134 146 92 374 -85 466 -44 23 -179
33 -227 18z"/>
</g>
</svg>
