<svg height="512pt" viewBox="0 -53 512.01922 512" width="512pt" xmlns="http://www.w3.org/2000/svg"><path d="m288 384.007812c-17.621094 0-21.332031-28.988281-21.332031-53.332031 0-5.886719-4.78125-10.667969-10.667969-10.667969h-64c-5.886719 0-10.667969 4.78125-10.667969 10.667969 0 24.34375-3.710937 53.332031-21.332031 53.332031-5.886719 0-10.667969 4.78125-10.667969 10.667969s4.78125 10.667969 10.667969 10.667969h128c5.886719 0 10.667969-4.78125 10.667969-10.667969s-4.78125-10.667969-10.667969-10.667969zm0 0" fill="#607d8b"/><path d="m510.316406 195.125c-1.6875-2.644531-4.460937-4.417969-7.574218-4.820312-15.210938-2.027344-26.6875-14.507813-26.6875-29.035157 0-12.695312 8.617187-23.914062 21.480468-27.882812 3.199219-.984375 5.78125-3.4375 6.890625-6.59375 1.132813-3.15625.703125-6.675781-1.152343-9.472657-12.4375-18.835937-32.296876-31.976562-48.296876-31.976562-10.710937 0-20.351562 3.136719-28.886718 5.886719-6.589844 2.132812-12.820313 4.140625-17.941406 4.140625-5.140626 0-11.347657-2.027344-17.941407-4.160156-8.488281-2.753907-18.152343-5.867188-28.863281-5.867188-24.9375 0-62.675781 32.277344-62.675781 80.9375 0 45.867188 35.113281 111.0625 67.882812 111.0625 15.679688 0 25.257813-4.140625 32.253907-7.148438 8.832031-3.816406 9.941406-3.796874 18.730468 0 6.976563 3.03125 16.554688 7.148438 32.257813 7.148438 24.511719 0 50.664062-37.292969 61.757812-73.34375.898438-2.988281.449219-6.230469-1.234375-8.875zm0 0" fill="#00bcd4"/><path d="m466.535156 2.808594c-7.214844-7.214844-26.140625.011718-42.269531 16.140625-16.128906 16.128906-23.355469 35.054687-16.140625 42.269531s26.140625-.011719 42.269531-16.140625c16.128907-16.132813 23.355469-35.054687 16.140625-42.269531zm0 0" fill="#00bcd4"/><path d="m408.105469 295.15625c-8.234375 3.542969-21.503907 8.851562-41.597657 8.851562-16.109374 0-32.535156-7.914062-47.511718-22.890624-26.792969-27.027344-46.996094-76.414063-46.996094-114.921876 0-60.5625 48.042969-107.519531 89.386719-107.519531 5.972656 0 11.859375.621094 18.046875 1.921875-.511719-2.410156-.765625-4.867187-.765625-7.253906 0-12.375 2.707031-23.957031 8.042969-34.410156 2.066406-4.695313 4.777343-9.261719 8.042968-13.589844-.042968 0-.066406 0-.109375 0h-341.332031c-26.453125 0-47.980469 21.546875-47.980469 48v234.664062c0 26.457032 21.527344 48 48 48h341.335938c20.648437 0 38.847656-13.289062 45.394531-32.382812-14.890625-1.300781-25.277344-5.589844-31.957031-8.46875zm0 0" fill="#455a64"/><path d="m53.332031 16.007812c-20.585937 0-37.332031 16.75-37.332031 37.335938v208h287.1875c-18.898438-27.96875-31.1875-64.875-31.1875-95.0625 0-60.609375 48.019531-107.605469 89.34375-107.605469 6.699219 0 12.777344.8125 18.070312 1.898438-.492187-2.367188-.746093-4.800781-.746093-7.230469 0-13.058594 3.175781-25.769531 9.300781-37.25zm0 0" fill="#eceff1"/><path d="m394.667969 341.34375h-341.335938c-29.394531 0-53.332031-23.914062-53.332031-53.335938v-234.664062c0-29.417969 23.9375-53.3359375 53.332031-53.3359375h331.882813c5.890625 0 10.667968 4.7812495 10.667968 10.6679685s-4.777343 10.667969-10.667968 10.667969h-331.882813c-17.640625 0-32 14.355469-32 32v234.664062c0 17.644532 14.359375 32 32 32h341.335938c11.753906 0 22.527343-6.589843 28.136719-17.171874 2.753906-5.183594 9.175781-7.1875 14.421874-4.4375 5.207032 2.773437 7.1875 9.238281 4.4375 14.441406-9.300781 17.582031-27.328124 28.503906-46.996093 28.503906zm0 0"/><path d="m416.425781 277.34375c-5.886719 0-10.773437-4.78125-10.773437-10.667969s4.671875-10.667969 10.5625-10.667969h.210937c5.890625 0 10.667969 4.78125 10.667969 10.667969s-4.777344 10.667969-10.667969 10.667969zm0 0"/><path d="m288 405.34375h-128c-5.886719 0-10.667969-4.78125-10.667969-10.667969s4.78125-10.667969 10.667969-10.667969c17.644531 0 21.332031-28.988281 21.332031-53.332031 0-5.886719 4.78125-10.667969 10.667969-10.667969s10.667969 4.78125 10.667969 10.667969c0 23.125-3.117188 40.917969-9.34375 53.332031h61.332031c-6.207031-12.414062-9.324219-30.207031-9.324219-53.332031 0-5.886719 4.78125-10.667969 10.667969-10.667969s10.667969 4.78125 10.667969 10.667969c0 24.34375 3.6875 53.332031 21.332031 53.332031 5.886719 0 10.667969 4.78125 10.667969 10.667969s-4.78125 10.667969-10.667969 10.667969zm0 0"/><path d="m449.769531 277.34375c-15.679687 0-25.257812-4.117188-32.253906-7.148438-8.769531-3.773437-9.898437-3.796874-18.730469 0-7 3.03125-16.554687 7.148438-32.234375 7.148438-32.769531 0-67.882812-65.195312-67.882812-111.0625 0-48.660156 37.738281-80.9375 62.675781-80.9375 10.6875 0 20.351562 3.113281 28.886719 5.886719 6.589843 2.132812 12.800781 4.140625 17.941406 4.140625s11.347656-2.027344 17.941406-4.140625c8.511719-2.773438 18.175781-5.886719 28.882813-5.886719 16 0 35.863281 13.140625 48.300781 31.976562 1.855469 2.796876 2.28125 6.316407 1.152344 9.472657-1.132813 3.15625-3.691407 5.609375-6.914063 6.59375-12.84375 3.96875-21.460937 15.167969-21.460937 27.882812 0 14.546875 11.476562 27.027344 26.667969 29.011719 3.113281.425781 5.886718 2.199219 7.59375 4.820312 1.683593 2.648438 2.132812 5.890626 1.214843 8.898438-11.113281 36.050781-37.246093 73.34375-61.78125 73.34375zm-41.621093-31.382812c7.082031 0 12.542968 2.347656 17.8125 4.652343 6.167968 2.644531 12.503906 5.394531 23.789062 5.394531 8.449219 0 26.515625-19.519531 37.695312-47.785156-19.328124-7.574218-32.746093-26.027344-32.746093-46.953125 0-17.132812 8.789062-32.621093 22.890625-41.878906-8.578125-8.640625-17.8125-12.714844-22.613282-12.714844-7.339843 0-14.613281 2.347657-22.292968 4.863281-7.871094 2.539063-16.023438 5.183594-24.511719 5.183594-8.492187 0-16.640625-2.644531-24.511719-5.183594-7.703125-2.515624-14.976562-4.863281-22.316406-4.863281-12.011719 0-41.34375 20.886719-41.34375 59.605469 0 42.796875 32.683594 89.726562 46.550781 89.726562 11.261719 0 17.640625-2.75 23.785157-5.394531 5.289062-2.285156 10.753906-4.652343 17.8125-4.652343zm0 0"/><path d="m416 64.007812c-5.886719 0-10.667969-4.777343-10.667969-10.664062 0-29.417969 23.9375-53.3359375 53.335938-53.3359375 5.886719 0 10.664062 4.7812495 10.664062 10.6679685 0 29.417969-23.933593 53.332031-53.332031 53.332031zm28.886719-39.550781c-6.59375 3.15625-11.925781 8.492188-15.085938 15.082031 6.574219-3.15625 11.925781-8.488281 15.085938-15.082031zm0 0"/><path d="m298.667969 277.34375h-288c-5.890625 0-10.667969-4.78125-10.667969-10.667969s4.777344-10.667969 10.667969-10.667969h288c5.886719 0 10.664062 4.78125 10.664062 10.667969s-4.777343 10.667969-10.664062 10.667969zm0 0"/></svg>