<svg id="color" enable-background="new 0 0 24 24" height="512" viewBox="0 0 24 24" width="512" xmlns="http://www.w3.org/2000/svg"><path d="m21 1h-18c-1.654 0-3 1.346-3 3v16c0 1.654 1.346 3 3 3h18c1.654 0 3-1.346 3-3v-16c0-1.654-1.346-3-3-3z" fill="#607d8b"/><path d="m21 21h-18c-.551 0-1-.448-1-1v-14h20v14c0 .552-.449 1-1 1z" fill="#fff"/><path d="m12 16c-.552 0-1-.448-1-1v-.376c0-1.042.547-1.987 1.393-2.409.401-.2.724-.745.566-1.402-.089-.374-.368-.685-.693-.775-.335-.092-.652-.043-.891.138-.242.183-.375.476-.375.824 0 .552-.448 1-1 1s-1-.448-1-1c0-.974.424-1.854 1.164-2.417.738-.562 1.7-.734 2.637-.473 1.02.283 1.845 1.161 2.103 2.236.359 1.5-.306 3.003-1.619 3.657-.165.084-.285.345-.285.621v.376c0 .552-.448 1-1 1z" fill="#f44336"/><path d="m13 18c0 .552-.448 1-1 1s-1-.448-1-1 .448-1 1-1 1 .448 1 1z" fill="#f44336"/><path d="m12 1h-9c-1.654 0-3 1.346-3 3v16c0 1.654 1.346 3 3 3h9v-2h-9c-.551 0-1-.448-1-1v-14h10z" fill="#546d79"/><path d="m12 6h-10v14c0 .552.449 1 1 1h9v-2c-.552 0-1-.448-1-1s.448-1 1-1v-1c-.552 0-1-.448-1-1v-.376c0-.87.381-1.673 1-2.16v-2.47c-.02-.001-.039-.002-.058-.002-.212 0-.408.062-.568.184-.241.183-.374.476-.374.824 0 .552-.448 1-1 1s-1-.448-1-1c0-.974.424-1.854 1.164-2.417.512-.39 1.132-.592 1.776-.592.02 0 .04 0 .06.001z" fill="#dedede"/><g fill="#d43a2f"><path d="m12 12.464c-.619.487-1 1.29-1 2.16v.376c0 .552.448 1 1 1zm-.06-4.473c-.644 0-1.264.202-1.776.592-.74.562-1.164 1.443-1.164 2.417 0 .552.448 1 1 1s1-.448 1-1c0-.348.133-.641.374-.824.16-.121.355-.184.568-.184.019 0 .039.001.058.002v-2.002c-.02 0-.04-.001-.06-.001z"/><path d="m12 17c-.552 0-1 .448-1 1s.448 1 1 1z"/></g></svg>