<?xml version="1.0" standalone="no"?>
<!DOCTYPE svg PUBLIC "-//W3C//DTD SVG 20010904//EN"
 "http://www.w3.org/TR/2001/REC-SVG-20010904/DTD/svg10.dtd">
<svg version="1.0" xmlns="http://www.w3.org/2000/svg"
 width="336.000000pt" height="336.000000pt" viewBox="0 0 336.000000 336.000000"
 preserveAspectRatio="xMidYMid meet">

<g transform="translate(0.000000,336.000000) scale(0.100000,-0.100000)"
fill="#000000" stroke="none">
<path d="M1538 3220 c-218 -21 -423 -88 -648 -212 -90 -49 -238 -168 -331
-265 -172 -181 -277 -356 -354 -588 -57 -175 -75 -290 -75 -480 0 -142 4 -188
32 -325 88 -440 411 -855 827 -1061 538 -266 1163 -208 1645 153 242 182 437
450 530 728 62 187 80 301 80 505 0 128 -5 206 -18 270 -96 506 -416 918 -880
1135 -243 114 -542 166 -808 140z m466 -129 c92 -21 176 -48 258 -83 49 -21
62 -40 91 -128 32 -98 41 -160 41 -285 -1 -174 -34 -330 -113 -528 -29 -72
-91 -196 -113 -224 -7 -8 -51 31 -151 130 -257 257 -529 432 -823 532 -104 36
-112 41 -123 72 -7 18 -24 46 -37 63 -29 34 -27 40 45 135 127 166 289 284
454 330 77 22 352 13 471 -14z m-916 -150 c-49 -50 -135 -159 -164 -207 -7
-12 -25 -18 -62 -20 -65 -4 -117 -30 -164 -83 -33 -37 -41 -41 -82 -41 -27 0
-46 5 -46 11 0 15 157 167 228 222 117 91 333 208 341 186 2 -6 -21 -36 -51
-68z m1473 -108 c107 -76 261 -238 338 -352 150 -226 218 -425 243 -706 9
-113 9 -141 -6 -210 -30 -145 -99 -266 -220 -388 -70 -70 -207 -177 -228 -177
-5 0 -24 11 -41 24 -18 14 -44 27 -59 31 -37 9 -39 14 -82 145 -44 138 -126
307 -213 438 l-63 95 78 156 c113 226 161 385 183 609 11 113 2 262 -21 344
-19 65 -10 64 91 -9z m-1905 -370 c10 -41 33 -85 61 -114 l25 -27 -21 -73
c-82 -300 -94 -666 -32 -1009 11 -61 50 -213 57 -219 7 -7 -18 -31 -34 -31 -8
0 -42 19 -76 42 -267 181 -405 406 -406 659 0 242 77 511 212 737 20 33 34 39
121 52 85 12 86 12 93 -17z m517 -58 c165 -59 366 -170 527 -289 93 -69 367
-331 388 -372 10 -18 1 -34 -69 -127 -196 -259 -495 -508 -760 -631 -169 -78
-186 -81 -213 -36 -26 45 -85 80 -145 87 -61 7 -65 13 -92 122 -44 180 -54
278 -54 521 0 200 4 254 23 362 13 69 31 150 40 179 l17 52 64 13 c72 15 120
47 157 105 13 21 30 39 37 39 6 0 43 -11 80 -25z m1045 -837 c52 -81 136 -240
157 -298 9 -25 20 -54 25 -65 16 -40 29 -81 35 -110 5 -27 0 -34 -42 -65 -53
-40 -82 -88 -91 -157 l-7 -48 -70 -17 c-235 -59 -504 -80 -727 -58 -125 13
-339 50 -353 62 -5 4 14 17 45 30 96 39 293 143 365 193 195 135 428 356 545
518 30 42 60 76 66 76 6 1 29 -27 52 -61z m-1825 -475 c20 -25 183 -149 235
-179 23 -13 32 -25 30 -39 -4 -25 -47 -31 -123 -15 -65 13 -80 30 -149 164
-50 96 -59 128 -29 105 10 -8 26 -24 36 -36z m2637 13 c-21 -55 -72 -148 -131
-237 -91 -135 -313 -359 -357 -359 -5 0 -2 29 7 65 15 59 19 66 54 81 76 35
127 116 127 205 0 35 5 40 93 103 50 36 114 88 142 116 54 55 80 66 65 26z
m-2316 -420 c54 -55 102 -76 174 -76 38 0 43 -3 88 -67 27 -38 74 -96 106
-130 32 -34 58 -67 58 -73 0 -27 -220 93 -342 187 -86 65 -221 201 -213 213
15 24 78 -2 129 -54z m1645 20 c13 -14 39 -32 58 -41 19 -9 36 -22 39 -30 7
-18 -37 -144 -70 -200 -30 -50 -82 -81 -217 -129 -138 -48 -244 -67 -409 -73
-167 -6 -228 3 -327 48 -134 62 -273 180 -368 314 l-48 66 20 27 c23 30 44 32
128 12 112 -27 135 -31 260 -45 271 -31 594 -10 820 53 91 26 88 26 114 -2z"/>
</g>
</svg>
