<?xml version="1.0" standalone="no"?>
<!DOCTYPE svg PUBLIC "-//W3C//DTD SVG 20010904//EN"
 "http://www.w3.org/TR/2001/REC-SVG-20010904/DTD/svg10.dtd">
<svg version="1.0" xmlns="http://www.w3.org/2000/svg"
 width="468.000000pt" height="232.000000pt" viewBox="0 0 468.000000 232.000000"
 preserveAspectRatio="xMidYMid meet">

<g transform="translate(0.000000,232.000000) scale(0.100000,-0.100000)"
fill="#000000" stroke="none">
<path d="M265 2017 c-59 -33 -88 -94 -81 -170 3 -32 85 -378 182 -770 175
-707 202 -795 251 -839 52 -47 160 -62 231 -32 55 22 99 71 123 133 11 31 90
310 175 621 85 311 158 573 162 583 5 13 55 -158 151 -515 175 -650 196 -717
234 -764 40 -48 98 -74 167 -74 96 0 160 42 200 132 27 63 369 1442 377 1521
7 78 -11 124 -63 163 -33 25 -46 29 -105 29 -80 0 -112 -19 -146 -86 -13 -27
-72 -269 -150 -616 -78 -351 -131 -566 -135 -555 -4 9 -66 235 -138 502 -150
554 -162 594 -189 648 -38 75 -105 112 -202 112 -99 0 -165 -42 -207 -133 -17
-35 -91 -291 -173 -599 -79 -296 -146 -538 -149 -538 -3 0 -62 255 -132 566
-137 611 -152 659 -212 688 -49 23 -123 20 -171 -7z"/>
<path d="M2762 1988 c-17 -17 -17 -289 0 -306 16 -16 1599 -17 1629 -2 17 10
19 23 19 155 0 132 -2 145 -19 155 -30 15 -1613 14 -1629 -2z"/>
<path d="M2762 1268 c-17 -17 -17 -289 0 -306 16 -16 1599 -17 1629 -2 17 10
19 23 19 155 0 132 -2 145 -19 155 -30 15 -1613 14 -1629 -2z"/>
<path d="M2762 588 c-17 -17 -17 -289 0 -306 16 -16 1599 -17 1629 -2 17 10
19 23 19 155 0 132 -2 145 -19 155 -30 15 -1613 14 -1629 -2z"/>
</g>
</svg>
