<?xml version="1.0" encoding="iso-8859-1"?>
<!-- Generator: Adobe Illustrator 19.0.0, SVG Export Plug-In . SVG Version: 6.00 Build 0)  -->
<svg version="1.1" id="Capa_1" xmlns="http://www.w3.org/2000/svg" xmlns:xlink="http://www.w3.org/1999/xlink" x="0px" y="0px"
	 viewBox="0 0 512.001 512.001" style="enable-background:new 0 0 512.001 512.001;" xml:space="preserve" fill="#a6cee3">
<g>
	<g>
		<path d="M256.126,86.323c-31.534,0-57.188,25.654-57.188,57.188c0,31.534,25.654,57.188,57.188,57.188
			c31.529,0,57.193-25.654,57.193-57.188C313.32,111.977,287.66,86.323,256.126,86.323z M256.126,168.328
			c-13.687,0-24.817-11.13-24.817-24.817c0-13.687,11.135-24.817,24.817-24.817c13.687,0,24.823,11.13,24.823,24.817
			C280.949,157.198,269.814,168.328,256.126,168.328z"/>
	</g>
</g>
<g>
	<g>
		<path d="M192.572,79.962c6.323-6.318,6.323-16.568,0-22.886c-6.318-6.323-16.568-6.323-22.886,0
			c-47.655,47.66-47.655,125.209,0,172.87c3.161,3.161,7.305,4.742,11.448,4.742c4.138,0,8.281-1.581,11.438-4.737
			c6.318-6.323,6.318-16.574,0-22.891C157.536,172.019,157.536,115.003,192.572,79.962z"/>
	</g>
</g>
<g>
	<g>
		<path d="M342.561,57.076c-6.323-6.318-16.563-6.323-22.886,0s-6.323,16.568,0,22.891c17.032,17.032,26.414,39.6,26.414,63.543
			c0,23.943-9.382,46.511-26.414,63.549c-6.323,6.318-6.323,16.568,0,22.886c3.162,3.161,7.3,4.742,11.443,4.742
			c4.138,0,8.281-1.581,11.443-4.742c23.15-23.15,35.899-53.843,35.899-86.435C378.46,110.919,365.711,80.226,342.561,57.076z"/>
	</g>
</g>
<g>
	<g>
		<path d="M91.98,143.781c0-43.776,17.14-85.021,48.265-116.151c6.323-6.318,6.323-16.568,0-22.886
			c-6.318-6.323-16.568-6.323-22.886,0C80.117,41.981,59.61,91.362,59.61,143.781c0,52.424,20.507,101.8,57.749,139.037
			c3.156,3.162,7.3,4.742,11.443,4.742c4.138,0,8.287-1.581,11.443-4.742c6.323-6.323,6.323-16.568,0-22.886
			C109.121,228.807,91.98,187.556,91.98,143.781z"/>
	</g>
</g>
<g>
	<g>
		<path d="M394.893,4.738c-6.323-6.318-16.563-6.318-22.886,0c-6.323,6.323-6.323,16.574,0,22.891
			c64.04,64.045,64.04,168.257,0,232.302c-6.323,6.318-6.323,16.568,0,22.886c3.162,3.162,7.3,4.742,11.443,4.742
			s8.281-1.581,11.443-4.748C471.558,206.148,471.558,81.403,394.893,4.738z"/>
	</g>
</g>
<g>
	<g>
		
			<rect x="270.929" y="254.388" transform="matrix(0.7138 -0.7003 0.7003 0.7138 -179.8836 308.1551)" width="32.369" height="239.588"/>
	</g>
</g>
<g>
	<g>
		
			<rect x="105.391" y="358.002" transform="matrix(0.7015 -0.7127 0.7127 0.7015 -199.398 272.326)" width="239.979" height="32.371"/>
	</g>
</g>
<g>
	<g>
		<path d="M399.22,490.335L286.463,176.874c-3.027-8.411-12.279-12.77-20.712-9.749c-8.411,3.021-12.776,12.295-9.749,20.706
			l112.758,313.46c2.374,6.598,8.6,10.709,15.23,10.709c1.818,0,3.663-0.307,5.476-0.955
			C397.877,508.014,402.247,498.751,399.22,490.335z"/>
	</g>
</g>
<g>
	<g>
		<path d="M247.057,167.125c-8.384-3.021-17.685,1.311-20.723,9.722l-113.297,313.46c-3.037,8.406,1.311,17.685,9.722,20.723
			c1.818,0.658,3.674,0.971,5.503,0.971c6.62,0,12.84-4.095,15.22-10.693l113.297-313.46
			C259.816,179.442,255.468,170.163,247.057,167.125z"/>
	</g>
</g>
<g>
</g>
<g>
</g>
<g>
</g>
<g>
</g>
<g>
</g>
<g>
</g>
<g>
</g>
<g>
</g>
<g>
</g>
<g>
</g>
<g>
</g>
<g>
</g>
<g>
</g>
<g>
</g>
<g>
</g>
</svg>
